<svg id="Layer_1" data-name="Layer 1" xmlns="http://www.w3.org/2000/svg" viewBox="0 0 1920 3364"><defs><style>.cls-1,.cls-2,.cls-3{fill:none;stroke-miterlimit:10;stroke-width:9px;}.cls-1{stroke:#ffc5a1;}.cls-2{stroke:#ff5959;}.cls-3{stroke:#badfdb;}.cls-4{fill:#ff5959;}.cls-5{fill:#badfdb;}.cls-6{fill:#ffc5a1;}</style></defs><title>confetti-06</title><circle class="cls-1" cx="378.25" cy="385.25" r="11.25"/><circle class="cls-1" cx="1852.25" cy="858.25" r="11.25"/><circle class="cls-1" cx="82.25" cy="2727.25" r="11.25"/><circle class="cls-2" cx="1421.25" cy="152.25" r="11.25"/><circle class="cls-2" cx="450.25" cy="2230.25" r="11.25"/><circle class="cls-3" cx="1026.25" cy="978.25" r="11.25"/><circle class="cls-3" cx="858.25" cy="2920.25" r="11.25"/><circle class="cls-3" cx="43.25" cy="1740.25" r="11.25"/><circle class="cls-2" cx="1741" cy="2055.75" r="11.25"/><circle class="cls-3" cx="1863" cy="2727.75" r="11.25"/><circle class="cls-4" cx="154.5" cy="734.5" r="8.5"/><circle class="cls-4" cx="290.5" cy="3068" r="8.5"/><circle class="cls-4" cx="1563.5" cy="1386.5" r="8.5"/><circle class="cls-5" cx="1113.5" cy="262.5" r="8.5"/><circle class="cls-5" cx="336.5" cy="3291.5" r="8.5"/><circle class="cls-6" cx="441.5" cy="1460.5" r="8.5"/><circle class="cls-6" cx="804.5" cy="2340.5" r="8.5"/><circle class="cls-6" cx="1457.5" cy="3008.5" r="8.5"/><circle class="cls-5" cx="1831.5" cy="1990.5" r="8.5"/><circle class="cls-5" cx="1673.5" cy="3085.5" r="8.5"/></svg>